<svg id="Layer_1" data-name="Layer 1" xmlns="http://www.w3.org/2000/svg" viewBox="0 0 94.52 116.1"><defs><style>.cls-1{fill:#231f20;}</style></defs><title>ADS</title><path class="cls-1" d="M36.38,65.19c15.1-16.17,25.31-26.38,42.49-35a157,157,0,0,0-20.22,3.5,104.56,104.56,0,0,1,26.83-19.9c-18,5.44-34.23,16.48-48.35,31.49A165.08,165.08,0,0,1,56,39C47.77,47.9,43.14,53.62,36.38,65.19Z" transform="translate(-6.37 -13.79)"/><path class="cls-1" d="M79.76,64.18a14.19,14.19,0,0,1,5.43-.54,12.55,12.55,0,0,1,3,.76c4.24-7.78,8.49-15.5,12.71-23a159.19,159.19,0,0,0-26.65-6.51c-3.09,1.1-9.75,6.32-9.75,6.32,10.78,1,22.27,4,25.39,4.61C88.67,47.85,84.17,55.92,79.76,64.18Z" transform="translate(-6.37 -13.79)"/><path class="cls-1" d="M25.19,63,26,61.51c-3.49-6.53-7.56-14-8.59-15.73a199.06,199.06,0,0,1,20.81-4.13S45.56,34.4,47,33.59A159.09,159.09,0,0,0,6.37,41.37c4.69,8.38,10.78,19.43,15.52,28.15Z" transform="translate(-6.37 -13.79)"/><path class="cls-1" d="M66.77,99.51a25.78,25.78,0,0,1-6,.65c-2.86,5.56-6,11.86-7.1,14.26-1.2-2.51-4.87-8.81-7.93-14.74-1.32,0-7.62.32-7.62.32,4.7,9,10.84,20.54,15.55,29.88,4.45-8.82,12.3-23.4,17-32.27A12.35,12.35,0,0,1,66.77,99.51Z" transform="translate(-6.37 -13.79)"/><path class="cls-1" d="M21.81,72.91c-4.34,8.72-10.16,20.81-14.47,29.81q4.24-.93,8.51-1.67c2.84-5.81,7.19-14.78,10-20.47Q23.86,76.73,21.81,72.91Z" transform="translate(-6.37 -13.79)"/><path class="cls-1" d="M42.64,92.09Q34.92,76.88,27.23,62.33q-2.25,4.41-4.5,8.87,3.86,7.14,7.73,14.45c-1,.1-4.58.21-5.59.32q-2,4-4,8c3.55-.47,9.67-.84,13.24-1.12l3,5.77q2.7-.16,5.41-.25c1.07,0,2.16-.06,3.24-.08q2.25,0,4.49,0,.38-17.82.76-35.63-3.86,0-7.73.09Q43,77.4,42.64,92.09Z" transform="translate(-6.37 -13.79)"/><path class="cls-1" d="M89.27,80.38c-1.2,2-2.21,4.35-3.41,6.39A17.48,17.48,0,0,1,89,89.16a4.53,4.53,0,0,1,.82,2.75,3.42,3.42,0,0,1-1.09,2.59,3.3,3.3,0,0,1-3.07.74,4.84,4.84,0,0,1-3.08-1.93,6,6,0,0,1-1.06-3c-2.15-.37-4.31-.71-6.47-1a16.44,16.44,0,0,0,1.63-7,19.12,19.12,0,0,0-.1-2.35A11.48,11.48,0,0,0,78,81.89a22.15,22.15,0,0,0,6.41,4.2c1.2-2.1,2.21-4.32,3.4-6.38a40.2,40.2,0,0,1-3.6-1.83,3.07,3.07,0,0,1-1.54-2.74,2.56,2.56,0,0,1,.61-1.68,2.3,2.3,0,0,1,2.29-.69c1.59.31,2.5,1.5,2.71,3.55,2.62.54,5,1.27,7.63,1.92.64-3.52-1.28-7.17-3.88-9.74a12.07,12.07,0,0,0-6.25-3.3,8.66,8.66,0,0,0-7.83,2A9,9,0,0,0,75,73.95c0,.1,0,.19,0,.3a21.17,21.17,0,0,0-1.27-2.39,18.57,18.57,0,0,0-8.3-7.5A20.87,20.87,0,0,0,58,62.78c-.91,0-4.4,0-5.32,0l-.16,7.57c.66,0,3.88-.06,4.54,0a17.15,17.15,0,0,1,5.51.92,11.09,11.09,0,0,1,6.59,10.3,9.42,9.42,0,0,1-6.56,8.87,15.61,15.61,0,0,1-5.15.43l-5.38-.2q-.08,3.79-.16,7.57c1,0,4.63.17,5.65.22a25.41,25.41,0,0,0,7.14-.51,15.56,15.56,0,0,0,8.89-6c.22-.29.41-.59.61-.89a13.65,13.65,0,0,0,4.34,8.24,13.93,13.93,0,0,0,7,3.58c3.46.68,6.35.08,8.67-1.87a9,9,0,0,0,3.24-7.35C97.38,87.41,94.43,83.6,89.27,80.38Z" transform="translate(-6.37 -13.79)"/></svg>